<svg width="20" height="20" viewBox="0 0 20 20" fill="none" xmlns="http://www.w3.org/2000/svg">
<g clip-path="url(#clip0_1609_10004)">
<path d="M5.41699 10.8333L6.07071 12.1407C6.29195 12.5832 6.40257 12.8044 6.55035 12.9962C6.68149 13.1663 6.834 13.3188 7.00412 13.4499C7.19584 13.5977 7.41708 13.7083 7.85956 13.9296L9.16699 14.5833L7.85956 15.237C7.41708 15.4582 7.19584 15.5689 7.00412 15.7167C6.834 15.8478 6.68149 16.0003 6.55035 16.1704C6.40257 16.3621 6.29195 16.5834 6.07071 17.0259L5.41699 18.3333L4.76328 17.0259C4.54204 16.5834 4.43142 16.3621 4.28363 16.1704C4.1525 16.0003 3.99999 15.8478 3.82986 15.7167C3.63815 15.5689 3.4169 15.4582 2.97442 15.237L1.66699 14.5833L2.97442 13.9296C3.4169 13.7083 3.63815 13.5977 3.82986 13.4499C3.99999 13.3188 4.1525 13.1663 4.28363 12.9962C4.43142 12.8044 4.54204 12.5832 4.76328 12.1407L5.41699 10.8333Z" stroke="#1D2939" stroke-width="1.66667" stroke-linecap="round" stroke-linejoin="round"/>
<path d="M12.5003 1.66663L13.4825 4.22031C13.7175 4.83133 13.835 5.13685 14.0178 5.39383C14.1797 5.62159 14.3787 5.82058 14.6065 5.98253C14.8634 6.16526 15.169 6.28276 15.78 6.51777L18.3337 7.49996L15.78 8.48214C15.169 8.71715 14.8634 8.83466 14.6065 9.01739C14.3787 9.17934 14.1797 9.37833 14.0178 9.60609C13.835 9.86307 13.7175 10.1686 13.4825 10.7796L12.5003 13.3333L11.5181 10.7796C11.2831 10.1686 11.1656 9.86307 10.9829 9.60609C10.8209 9.37833 10.622 9.17934 10.3942 9.01739C10.1372 8.83466 9.8317 8.71715 9.22067 8.48214L6.66699 7.49996L9.22067 6.51777C9.8317 6.28276 10.1372 6.16526 10.3942 5.98253C10.622 5.82058 10.8209 5.62159 10.9829 5.39383C11.1656 5.13685 11.2831 4.83133 11.5181 4.22031L12.5003 1.66663Z" stroke="#1D2939" stroke-width="1.66667" stroke-linecap="round" stroke-linejoin="round"/>
</g>
<defs>
<clipPath id="clip0_1609_10004">
<rect width="20" height="20" fill="white"/>
</clipPath>
</defs>
</svg>
