<svg width="24" height="24" viewBox="0 0 24 24" fill="none" xmlns="http://www.w3.org/2000/svg">
<path d="M20.3337 13.6666H3.66699M11.167 10.3333H7.00033M3.66699 15.1666L3.66699 8.83325C3.66699 7.89983 3.66699 7.43312 3.84865 7.0766C4.00844 6.763 4.2634 6.50803 4.57701 6.34824C4.93353 6.16659 5.40024 6.16659 6.33366 6.16659L17.667 6.16659C18.6004 6.16659 19.0671 6.16659 19.4236 6.34824C19.7372 6.50803 19.9922 6.763 20.152 7.0766C20.3337 7.43312 20.3337 7.89983 20.3337 8.83325V15.1666C20.3337 16.1 20.3337 16.5667 20.152 16.9232C19.9922 17.2368 19.7372 17.4918 19.4236 17.6516C19.0671 17.8333 18.6004 17.8333 17.667 17.8333L6.33366 17.8333C5.40024 17.8333 4.93353 17.8333 4.57701 17.6516C4.2634 17.4918 4.00844 17.2368 3.84865 16.9232C3.66699 16.5667 3.66699 16.1 3.66699 15.1666Z" stroke="black" stroke-width="1.5" stroke-linecap="round" stroke-linejoin="round"/>
</svg>
