<svg width="20" height="20" viewBox="0 0 20 20" fill="none" xmlns="http://www.w3.org/2000/svg">
<g clip-path="url(#clip0_801_8259)">
<path d="M7.49935 10L9.16602 11.6667L12.916 7.91667M14.917 4.16543C15.0886 4.58045 15.418 4.91034 15.8327 5.08257L17.287 5.68499C17.7021 5.85691 18.0318 6.18667 18.2037 6.60172C18.3757 7.01677 18.3757 7.48312 18.2037 7.89818L17.6018 9.35151C17.4298 9.76674 17.4296 10.2336 17.6023 10.6486L18.2032 12.1015C18.2885 12.3071 18.3324 12.5274 18.3324 12.75C18.3324 12.9725 18.2886 13.1929 18.2035 13.3985C18.1183 13.6041 17.9935 13.7909 17.8361 13.9482C17.6787 14.1055 17.4919 14.2303 17.2863 14.3154L15.833 14.9174C15.418 15.089 15.0881 15.4184 14.9159 15.8332L14.3135 17.2875C14.1416 17.7026 13.8118 18.0323 13.3968 18.2043C12.9817 18.3762 12.5154 18.3762 12.1004 18.2043L10.6471 17.6023C10.232 17.4308 9.76587 17.4311 9.35108 17.6032L7.89676 18.2048C7.48195 18.3763 7.01602 18.3762 6.60132 18.2044C6.18662 18.0326 5.85706 17.7032 5.68503 17.2886L5.08245 15.8338C4.91085 15.4188 4.58147 15.0889 4.16672 14.9167L2.7124 14.3143C2.29754 14.1424 1.9679 13.8129 1.79592 13.3981C1.62394 12.9832 1.62371 12.5171 1.79527 12.1021L2.39724 10.6488C2.56873 10.2337 2.56838 9.76755 2.39626 9.35274L1.79516 7.89733C1.70993 7.69175 1.66605 7.4714 1.66602 7.24887C1.66598 7.02633 1.70979 6.80596 1.79495 6.60037C1.88011 6.39477 2.00494 6.20797 2.16232 6.05063C2.3197 5.8933 2.50654 5.76852 2.71215 5.68342L4.16543 5.08144C4.58007 4.90998 4.90975 4.58101 5.0821 4.16672L5.6845 2.71235C5.85642 2.29729 6.18616 1.96753 6.6012 1.79561C7.01624 1.62369 7.48257 1.62369 7.89761 1.79561L9.35089 2.3976C9.76594 2.5691 10.2321 2.56875 10.6469 2.39663L12.1018 1.79655C12.5168 1.62472 12.983 1.62476 13.398 1.79664C13.813 1.96853 14.1427 2.2982 14.3146 2.71314L14.9172 4.16795L14.917 4.16543Z" stroke="#7F56D9" stroke-width="2" stroke-linecap="round" stroke-linejoin="round"/>
</g>
<defs>
<clipPath id="clip0_801_8259">
<rect width="20" height="20" fill="white"/>
</clipPath>
</defs>
</svg>
