<svg width="20" height="10" viewBox="0 0 20 10" fill="none" xmlns="http://www.w3.org/2000/svg">
<path d="M9.99935 4.99992H10.0035M14.166 4.99992H14.1702M5.83268 4.99992H5.83685M4.33268 0.833252H15.666C16.5994 0.833252 17.0661 0.833252 17.4227 1.01491C17.7363 1.1747 17.9912 1.42966 18.151 1.74327C18.3327 2.09979 18.3327 2.5665 18.3327 3.49992V6.49992C18.3327 7.43334 18.3327 7.90005 18.151 8.25657C17.9912 8.57017 17.7363 8.82514 17.4227 8.98493C17.0661 9.16659 16.5994 9.16659 15.666 9.16659H4.33268C3.39926 9.16659 2.93255 9.16659 2.57603 8.98493C2.26243 8.82514 2.00746 8.57017 1.84767 8.25657C1.66602 7.90005 1.66602 7.43334 1.66602 6.49992V3.49992C1.66602 2.5665 1.66602 2.09979 1.84767 1.74327C2.00746 1.42966 2.26243 1.1747 2.57603 1.01491C2.93255 0.833252 3.39926 0.833252 4.33268 0.833252ZM10.2077 4.99992C10.2077 5.11498 10.1144 5.20825 9.99935 5.20825C9.88429 5.20825 9.79102 5.11498 9.79102 4.99992C9.79102 4.88486 9.88429 4.79159 9.99935 4.79159C10.1144 4.79159 10.2077 4.88486 10.2077 4.99992ZM14.3743 4.99992C14.3743 5.11498 14.2811 5.20825 14.166 5.20825C14.051 5.20825 13.9577 5.11498 13.9577 4.99992C13.9577 4.88486 14.051 4.79159 14.166 4.79159C14.2811 4.79159 14.3743 4.88486 14.3743 4.99992ZM6.04102 4.99992C6.04102 5.11498 5.94774 5.20825 5.83268 5.20825C5.71762 5.20825 5.62435 5.11498 5.62435 4.99992C5.62435 4.88486 5.71762 4.79159 5.83268 4.79159C5.94774 4.79159 6.04102 4.88486 6.04102 4.99992Z" stroke="#667085" stroke-width="1.66667" stroke-linecap="round" stroke-linejoin="round"/>
</svg>
