<svg width="24" height="24" viewBox="0 0 24 24" fill="none" xmlns="http://www.w3.org/2000/svg">
<rect y="24" width="24" height="24" rx="8" transform="rotate(-90 0 24)" fill="white"/>
<path d="M12.833 11.9999C12.833 11.5397 12.4599 11.1666 11.9997 11.1666C11.5394 11.1666 11.1663 11.5397 11.1663 11.9999C11.1663 12.4602 11.5394 12.8333 11.9997 12.8333C12.4599 12.8333 12.833 12.4602 12.833 11.9999Z" stroke="black" stroke-width="2" stroke-linecap="round" stroke-linejoin="round"/>
<path d="M6.99967 11.9999C6.99967 11.5397 6.62658 11.1666 6.16634 11.1666C5.7061 11.1666 5.33301 11.5397 5.33301 11.9999C5.33301 12.4602 5.7061 12.8333 6.16634 12.8333C6.62658 12.8333 6.99967 12.4602 6.99967 11.9999Z" stroke="black" stroke-width="2" stroke-linecap="round" stroke-linejoin="round"/>
<path d="M18.6663 11.9999C18.6663 11.5397 18.2932 11.1666 17.833 11.1666C17.3728 11.1666 16.9997 11.5397 16.9997 11.9999C16.9997 12.4602 17.3728 12.8333 17.833 12.8333C18.2932 12.8333 18.6663 12.4602 18.6663 11.9999Z" stroke="black" stroke-width="2" stroke-linecap="round" stroke-linejoin="round"/>
</svg>
