<svg width="24" height="24" viewBox="0 0 24 24" fill="none" xmlns="http://www.w3.org/2000/svg">
<path d="M15.3333 7.83324L19.5 11.9999M19.5 11.9999L15.3333 16.1666M19.5 11.9999L9.5 11.9999M12 7.83324C12 7.58692 12 7.46377 11.9908 7.35708C11.8957 6.24827 11.079 5.33587 9.98753 5.11885C9.88252 5.09797 9.76001 5.08435 9.51529 5.05716L8.66412 4.96259C7.3854 4.82051 6.74601 4.74946 6.23805 4.91201C5.56078 5.12874 5.00785 5.62364 4.71765 6.27284C4.5 6.75974 4.5 7.40304 4.5 8.68965L4.5 15.3102C4.5 16.5968 4.5 17.2401 4.71765 17.727C5.00785 18.3762 5.56078 18.8711 6.23805 19.0878C6.74601 19.2503 7.38538 19.1793 8.66412 19.0372L9.51529 18.9427C9.7601 18.9155 9.8825 18.9019 9.98753 18.881C11.079 18.6639 11.8957 17.7515 11.9908 16.6427C12 16.536 12 16.4129 12 16.1666" stroke="black" stroke-width="1.5" stroke-linecap="round" stroke-linejoin="round"/>
</svg>
