<svg width="20" height="21" viewBox="0 0 20 21" fill="none" xmlns="http://www.w3.org/2000/svg">
<path d="M2.39662 15.5747C2.43491 15.2301 2.45405 15.0578 2.50618 14.8968C2.55243 14.7539 2.61778 14.6179 2.70045 14.4926C2.79363 14.3513 2.91621 14.2287 3.16136 13.9835L14.1666 2.97832C15.0871 2.05784 16.5795 2.05785 17.4999 2.97832C18.4204 3.8988 18.4204 5.39118 17.4999 6.31165L6.49469 17.3169C6.24954 17.562 6.12696 17.6846 5.98566 17.7778C5.86029 17.8605 5.72433 17.9258 5.58146 17.9721C5.42042 18.0242 5.24813 18.0433 4.90356 18.0816L2.08325 18.395L2.39662 15.5747Z" stroke="#6941C6" stroke-width="1.66667" stroke-linecap="round" stroke-linejoin="round"/>
</svg>
