<svg width="20" height="20" viewBox="0 0 20 20" fill="none" xmlns="http://www.w3.org/2000/svg">
<g clip-path="url(#clip0_411_7712)">
<path d="M3.74984 18.3333V14.1666M3.74984 5.83329V1.66663M1.6665 3.74996H5.83317M1.6665 16.25H5.83317M10.8332 2.49996L9.38802 6.25734C9.15301 6.86837 9.03551 7.17388 8.85278 7.43086C8.69083 7.65862 8.49184 7.85762 8.26408 8.01957C8.00709 8.2023 7.70158 8.3198 7.09055 8.55481L3.33317 9.99996L7.09056 11.4451C7.70158 11.6801 8.00709 11.7976 8.26408 11.9804C8.49184 12.1423 8.69083 12.3413 8.85278 12.5691C9.03551 12.826 9.15301 13.1315 9.38802 13.7426L10.8332 17.5L12.2783 13.7426C12.5133 13.1315 12.6308 12.826 12.8136 12.5691C12.9755 12.3413 13.1745 12.1423 13.4023 11.9804C13.6592 11.7976 13.9648 11.6801 14.5758 11.4451L18.3332 9.99996L14.5758 8.55481C13.9648 8.3198 13.6592 8.2023 13.4023 8.01957C13.1745 7.85762 12.9755 7.65862 12.8136 7.43086C12.6308 7.17388 12.5133 6.86837 12.2783 6.25734L10.8332 2.49996Z" stroke="#667085" stroke-width="2" stroke-linecap="round" stroke-linejoin="round"/>
</g>
<defs>
<clipPath id="clip0_411_7712">
<rect width="20" height="20" fill="white"/>
</clipPath>
</defs>
</svg>
