<svg width="20" height="20" viewBox="0 0 20 20" fill="none" xmlns="http://www.w3.org/2000/svg">
<path d="M5.41699 10.8332L6.07071 12.1406C6.29195 12.5831 6.40257 12.8043 6.55035 12.996C6.68149 13.1662 6.834 13.3187 7.00412 13.4498C7.19584 13.5976 7.41708 13.7082 7.85956 13.9295L9.16699 14.5832L7.85956 15.2369C7.41708 15.4581 7.19584 15.5687 7.00412 15.7165C6.834 15.8477 6.68149 16.0002 6.55035 16.1703C6.40257 16.362 6.29195 16.5833 6.07071 17.0257L5.41699 18.3332L4.76328 17.0257C4.54204 16.5833 4.43142 16.362 4.28363 16.1703C4.1525 16.0002 3.99999 15.8477 3.82986 15.7165C3.63815 15.5687 3.4169 15.4581 2.97442 15.2369L1.66699 14.5832L2.97442 13.9295C3.4169 13.7082 3.63815 13.5976 3.82986 13.4498C3.99999 13.3187 4.1525 13.1662 4.28363 12.996C4.43142 12.8043 4.54204 12.5831 4.76328 12.1406L5.41699 10.8332Z" stroke="#667085" stroke-width="1.66667" stroke-linecap="round" stroke-linejoin="round"/>
<path d="M12.5003 1.6665L13.4825 4.22019C13.7175 4.83121 13.835 5.13672 14.0178 5.39371C14.1797 5.62147 14.3787 5.82046 14.6065 5.98241C14.8634 6.16514 15.169 6.28264 15.78 6.51765L18.3337 7.49984L15.78 8.48202C15.169 8.71703 14.8634 8.83454 14.6065 9.01727C14.3787 9.17922 14.1797 9.37821 14.0178 9.60597C13.835 9.86295 13.7175 10.1685 13.4825 10.7795L12.5003 13.3332L11.5181 10.7795C11.2831 10.1685 11.1656 9.86295 10.9829 9.60597C10.8209 9.37821 10.622 9.17922 10.3942 9.01727C10.1372 8.83454 9.8317 8.71703 9.22067 8.48202L6.66699 7.49984L9.22067 6.51765C9.8317 6.28264 10.1372 6.16514 10.3942 5.98241C10.622 5.82046 10.8209 5.62147 10.9829 5.39371C11.1656 5.13672 11.2831 4.83121 11.5181 4.22019L12.5003 1.6665Z" stroke="#667085" stroke-width="1.66667" stroke-linecap="round" stroke-linejoin="round"/>
</svg>
